<svg xmlns="http://www.w3.org/2000/svg" width="840" height="720" viewBox="0 0 840 720" font-family="ui-monospace,SFMono-Regular,Menlo,Consolas,monospace">
<style>.b{transform-box:fill-box;transform-origin:bottom;animation:grow .8s ease-out both}@keyframes grow{from{transform:scaleY(0)}to{transform:scaleY(1)}}</style>
<rect x=".5" y=".5" width="839" height="719" rx="10" fill="#0d1117" stroke="#30363d"/>
<rect x="32.0" y="32" width="376.0" height="124" rx="8" fill="#161b22" stroke="#30363d"/>
<text x="56.0" y="92" fill="#39d353" font-size="44" font-weight="700">1,443</text>
<text x="56.0" y="122" fill="#e6edf3" font-size="18">contributions</text>
<text x="56.0" y="142" fill="#8b949e" font-size="14">last 12 months</text>
<rect x="432.0" y="32" width="376.0" height="124" rx="8" fill="#161b22" stroke="#30363d"/>
<text x="456.0" y="92" fill="#39d353" font-size="44" font-weight="700">1</text>
<text x="456.0" y="122" fill="#e6edf3" font-size="18">current streak</text>
<text x="456.0" y="142" fill="#8b949e" font-size="14">days in a row</text>
<rect x="32.0" y="180" width="376.0" height="124" rx="8" fill="#161b22" stroke="#30363d"/>
<text x="56.0" y="240" fill="#39d353" font-size="44" font-weight="700">14</text>
<text x="56.0" y="270" fill="#e6edf3" font-size="18">longest streak</text>
<text x="56.0" y="290" fill="#8b949e" font-size="14">days in a row</text>
<rect x="432.0" y="180" width="376.0" height="124" rx="8" fill="#161b22" stroke="#30363d"/>
<text x="456.0" y="240" fill="#39d353" font-size="44" font-weight="700">123</text>
<text x="456.0" y="270" fill="#e6edf3" font-size="18">active days</text>
<text x="456.0" y="290" fill="#8b949e" font-size="14">of 367</text>
<rect x="32.0" y="328" width="376.0" height="124" rx="8" fill="#161b22" stroke="#30363d"/>
<text x="56.0" y="388" fill="#39d353" font-size="44" font-weight="700">70</text>
<text x="56.0" y="418" fill="#e6edf3" font-size="18">best day</text>
<text x="56.0" y="438" fill="#8b949e" font-size="14">2026-06-22</text>
<rect x="432.0" y="328" width="376.0" height="124" rx="8" fill="#161b22" stroke="#30363d"/>
<text x="456.0" y="388" fill="#39d353" font-size="44" font-weight="700">11.7</text>
<text x="456.0" y="418" fill="#e6edf3" font-size="18">avg / active day</text>
<text x="456.0" y="438" fill="#8b949e" font-size="14">contributions</text>
<text x="32" y="498" fill="#8b949e" font-size="16">contributions per month</text>
<rect class="b" style="animation-delay:0.00s" x="44.3" y="656.5" width="40.1" height="3.5" rx="3" fill="#006d32"><title>2025-11: 16</title></rect>
<text x="64.3" y="680" fill="#8b949e" font-size="13" text-anchor="middle">Nov</text>
<rect class="b" style="animation-delay:0.06s" x="109.0" y="655.6" width="40.1" height="4.4" rx="3" fill="#006d32"><title>2025-12: 20</title></rect>
<text x="129.0" y="680" fill="#8b949e" font-size="13" text-anchor="middle">Dec</text>
<rect class="b" style="animation-delay:0.12s" x="173.6" y="649.3" width="40.1" height="10.7" rx="3" fill="#006d32"><title>2026-01: 49</title></rect>
<text x="193.7" y="680" fill="#8b949e" font-size="13" text-anchor="middle">Jan</text>
<rect class="b" style="animation-delay:0.18s" x="238.3" y="650.0" width="40.1" height="10.0" rx="3" fill="#006d32"><title>2026-02: 46</title></rect>
<text x="258.3" y="680" fill="#8b949e" font-size="13" text-anchor="middle">Feb</text>
<rect class="b" style="animation-delay:0.24s" x="303.0" y="633.2" width="40.1" height="26.8" rx="3" fill="#006d32"><title>2026-03: 123</title></rect>
<text x="323.0" y="680" fill="#8b949e" font-size="13" text-anchor="middle">Mar</text>
<rect class="b" style="animation-delay:0.30s" x="367.6" y="626.8" width="40.1" height="33.2" rx="3" fill="#006d32"><title>2026-04: 152</title></rect>
<text x="387.7" y="680" fill="#8b949e" font-size="13" text-anchor="middle">Apr</text>
<rect class="b" style="animation-delay:0.36s" x="432.3" y="628.1" width="40.1" height="31.9" rx="3" fill="#006d32"><title>2026-05: 146</title></rect>
<text x="452.3" y="680" fill="#8b949e" font-size="13" text-anchor="middle">May</text>
<rect class="b" style="animation-delay:0.42s" x="497.0" y="512.0" width="40.1" height="148.0" rx="3" fill="#26a641"><title>2026-06: 678</title></rect>
<text x="517.0" y="680" fill="#8b949e" font-size="13" text-anchor="middle">Jun</text>
<rect class="b" style="animation-delay:0.48s" x="561.6" y="623.5" width="40.1" height="36.5" rx="3" fill="#006d32"><title>2026-07: 167</title></rect>
<text x="581.7" y="680" fill="#8b949e" font-size="13" text-anchor="middle">Jul</text>
<rect class="b" style="animation-delay:0.54s" x="626.3" y="655.4" width="40.1" height="4.6" rx="3" fill="#006d32"><title>2026-08: 21</title></rect>
<text x="646.3" y="680" fill="#8b949e" font-size="13" text-anchor="middle">Aug</text>
<rect class="b" style="animation-delay:0.60s" x="691.0" y="656.3" width="40.1" height="3.7" rx="3" fill="#006d32"><title>2026-09: 17</title></rect>
<text x="711.0" y="680" fill="#8b949e" font-size="13" text-anchor="middle">Sep</text>
<rect class="b" style="animation-delay:0.66s" x="755.6" y="658.0" width="40.1" height="2.0" rx="3" fill="#006d32"><title>2026-10: 3</title></rect>
<text x="775.7" y="680" fill="#8b949e" font-size="13" text-anchor="middle">Oct</text>
</svg>